<?xml version="1.0" encoding="UTF-8" standalone="no"?>
<!-- Created with Inkscape (http://www.inkscape.org/) -->

<svg
   xmlns:dc="http://purl.org/dc/elements/1.1/"
   xmlns:cc="http://creativecommons.org/ns#"
   xmlns:rdf="http://www.w3.org/1999/02/22-rdf-syntax-ns#"
   xmlns:svg="http://www.w3.org/2000/svg"
   xmlns="http://www.w3.org/2000/svg"
   xmlns:sodipodi="http://sodipodi.sourceforge.net/DTD/sodipodi-0.dtd"
   xmlns:inkscape="http://www.inkscape.org/namespaces/inkscape"
   version="1.0"
   width="200"
   height="177.4874"
   viewBox="0 0 200 177.4874"
   id="svg2283"
   xml:space="preserve"
   inkscape:version="0.47pre4 r22446"
   sodipodi:docname="attention.svg"
   inkscape:export-filename="/home/jp/bureau/attention.png"
   inkscape:export-xdpi="8.1132517"
   inkscape:export-ydpi="8.1132517"><metadata
   id="metadata15"><rdf:RDF><cc:Work
       rdf:about=""><dc:format>image/svg+xml</dc:format><dc:type
         rdf:resource="http://purl.org/dc/dcmitype/StillImage" /><dc:title></dc:title></cc:Work></rdf:RDF></metadata><sodipodi:namedview
   pagecolor="#ffffff"
   bordercolor="#666666"
   borderopacity="1"
   objecttolerance="10"
   gridtolerance="10"
   guidetolerance="10"
   inkscape:pageopacity="0"
   inkscape:pageshadow="2"
   inkscape:window-width="1280"
   inkscape:window-height="894"
   id="namedview13"
   showgrid="false"
   inkscape:zoom="0.42874011"
   inkscape:cx="-222.90921"
   inkscape:cy="253.24269"
   inkscape:window-x="0"
   inkscape:window-y="52"
   inkscape:window-maximized="1"
   inkscape:current-layer="svg2283" /><defs
   id="defs2300"><inkscape:perspective
     sodipodi:type="inkscape:persp3d"
     inkscape:vp_x="0 : 275.22501 : 1"
     inkscape:vp_y="0 : 1000 : 0"
     inkscape:vp_z="627.76898 : 275.22501 : 1"
     inkscape:persp3d-origin="313.88449 : 183.48334 : 1"
     id="perspective17" /></defs>


<g
   id="g4115"
   transform="matrix(0.35509409,0,0,0.35509409,0,106.46857)"><g
     transform="translate(-32.992,-339.72401)"
     style="fill:#ff6700;fill-opacity:1"
     id="Layer_4">
	<g
   style="fill:#ff6700;fill-opacity:1"
   id="g2286">
		<polygon
   id="polygon2288"
   style="fill:#ff6700;fill-opacity:1"
   points="93.581,485.725 93.581,485.725 535.637,485.725 314.611,102.892 " />
		<path
   id="path2290"
   style="fill:#ff6700;fill-opacity:1"
   d="M 590.194,472.222 353.581,62.393 c -8.039,-13.924 -22.895,-22.501 -38.972,-22.501 -16.077,0 -30.931,8.577 -38.97,22.499 L 39.021,472.222 c -4.02,6.962 -6.029,14.731 -6.029,22.5 0,7.77 2.009,15.539 6.029,22.5 8.039,13.925 22.895,22.502 38.972,22.502 l 473.232,0 c 16.074,0 30.932,-8.577 38.971,-22.502 4.02,-6.961 6.029,-14.729 6.027,-22.499 0,-7.768 -2.01,-15.538 -6.029,-22.501 z" />
	</g>
</g><g
     transform="translate(-32.992,-339.72401)"
     style="fill:#ffc400;fill-opacity:1"
     id="Layer_5">
	<polygon
   id="polygon2293"
   style="fill:#ffc400;fill-opacity:1"
   points="93.58,485.725 93.58,485.725 314.61,102.892 535.635,485.725 " />
</g><g
     transform="translate(-32.992,-339.72401)"
     id="Layer_3">
	<circle
   d="m 341.85399,436.29401 c 0,15.0481 -12.19889,27.247 -27.247,27.247 -15.0481,0 -27.247,-12.1989 -27.247,-27.247 0,-15.04811 12.1989,-27.247 27.247,-27.247 15.04811,0 27.247,12.19889 27.247,27.247 z"
   sodipodi:ry="27.247"
   sodipodi:rx="27.247"
   sodipodi:cy="436.29401"
   sodipodi:cx="314.60699"
   id="circle2237"
   r="27.247"
   cy="436.29401"
   cx="314.60699" />
	<path
   id="path2297"
   d="m 314.608,192.817 c -16.974,0 -28,11.271 -27.628,23.088 0.273,8.587 1.258,37.549 2.927,56.63 l 8.223,91.644 c 1.312,11.147 3.202,19.351 5.672,24.692 2.197,4.754 5.798,7.358 10.806,7.854 5.008,-0.495 8.61,-3.1 10.806,-7.854 2.469,-5.342 4.358,-13.545 5.671,-24.692 l 8.225,-91.644 c 1.67,-19.081 2.654,-48.043 2.926,-56.63 0.344,-10.931 -10.654,-23.088 -27.628,-23.088 z" />
</g></g>
</svg>